<?xml version="1.0" encoding="utf-8"?>
<!-- Generator: Adobe Illustrator 16.0.0, SVG Export Plug-In . SVG Version: 6.00 Build 0)  -->
<!DOCTYPE svg PUBLIC "-//W3C//DTD SVG 1.1//EN" "http://www.w3.org/Graphics/SVG/1.1/DTD/svg11.dtd">
<svg version="1.1" id="Layer_1" xmlns="http://www.w3.org/2000/svg" xmlns:xlink="http://www.w3.org/1999/xlink" x="0px" y="0px"
	 width="99.6px" height="100.2px" viewBox="0 0 99.6 100.2" enable-background="new 0 0 99.6 100.2" xml:space="preserve">
<path stroke="#000000" stroke-width="0.5" stroke-miterlimit="10" d="M96.1,49.1c-2.6-2.5-6.3-3.5-10.2-3.1l1.4-5.6
	c0,0-0.2-0.6-0.2-0.9c0-2.7-11.3-4.4-27.5-5.1c-6.7-0.8-25.1-0.4-32.5,0.4C12.4,35.9,0,38.5,0,41.1c0,0.1,0,0.3,0.1,0.4L9,76.299
	L9.1,76.4C13.8,90.7,27.6,100,43.6,100c13.3,0,25.2-7.101,31.5-17.4l8.7-4.301h-0.3c3.399-1,6.7-3,9.6-5.899
	C100.4,64.9,101.7,54.5,96.1,49.1z M83,75.799L76.9,78.5L84,52.6C87.4,51,90.9,51,93.3,52.9c4,3.2,3.4,10.7-1.5,16.8
	C89.1,72.799,86,74.9,83,75.799z"/>
<path fill="#FFFFFF" stroke="#FFFFFF" stroke-width="0.5" stroke-miterlimit="10" d="M57.8,23.8c0,0-9.9-6.9-11.8-8.7
	c-1.9-1.9-4.3-4.7-4.7-5.8c-0.6-1.4-0.7-2.2-0.6-2.3c-0.101-0.5,0-1.1,0.1-1.4c0.3-1.5,2.7-2,5.6-1.4C49.3,4.8,51.3,6.5,51,7.9
	c-0.3,1.3-1.8,1.5-4.601,0.9c0,0,0.801,2.9,2.9,3.7c0,0,2.2,0.6,3.2-0.1c1.5-1.1,2.2-2.9,2.2-4.8C54.7,3.4,49.8,0,43.9,0
	c-6,0-10.8,3.4-10.8,7.5c0,2.7,1.9,4.7,5,6.6l9,6.8c-0.3,0,11.601,8.8,10.9,13.2c-0.3,2-2.101,2.6-5.4,3.4
	c-1.5,0.4-4.1,0.4-5.899,0.4c-2.9,0-5.9-0.2-8.2-1.3c-3.4-1.6-5.2-3.3-5.2-6.4c0-2.1,0.6-3.3,1.8-4.5c0.7-0.6,4.2-2.8,7.7-3.5
	l2.7-0.4c0,0-4.4-0.8-4.9-0.8C28.4,21,21,26.2,21,33S30.9,45.3,43.1,45.3S65.2,39.8,65.2,33C65.2,29.4,62.3,26.1,57.8,23.8z"/>
</svg>
