<svg version="1.1" xmlns="http://www.w3.org/2000/svg" xmlns:xlink="http://www.w3.org/1999/xlink" x="0" y="0" width="96.79" height="101.01" viewBox="0 0 96.79 101.01" enable-background="new 0 0 96.79 101.014" xml:space="preserve">
  <g id="Layer_2">
    <polyline fill="#FFFFFF" stroke="#FFFFFF" stroke-width="0.45" stroke-miterlimit="10" points="35.81 1.68 25.31 4.93 15.81 10.68 5.31 20.43 3.81 26.18 6.06 34.43 20.31 43.93 61.81 49.93 68.56 48.18 82.31 43.43 91.31 37.68 94.56 33.18 94.81 28.43 93.06 21.93 89.06 16.68 83.06 10.93 78.56 8.18 70.06 4.18 60.81 1.93 46.56 1.68 35.81 1.68 "/>
    <path fill="#F37986" stroke="#F06597" stroke-width="0.46" stroke-miterlimit="10" d="M23.11 23.79c-0.86 1.08-1.72 4.88 0.29 5.6 2.01 0.72 5.16 0.18 5.73 1.81 0.57 1.63 1.15 5.6 1.15 5.6s8.89-0.54 10.61-1.44c1.72-0.9 7.74-3.61 7.74-3.61s2.29-2.17 0-3.25c-2.29-1.08-11.18-2.35-12.9-4.15s-2.01-3.43-3.44-3.61 -6.31 0.36-7.45 1.26C23.68 22.89 23.11 23.79 23.11 23.79z"/>
    <path fill="#FFCD05" stroke="#FFCD05" stroke-width="0.46" stroke-miterlimit="10" d="M32.57 16.48c0 0-1.15 2.44-0.43 3.25 0.72 0.81 1.72 1.72 2.29 2.8 0.57 1.08 2.15 2.71 5.02 3.43s6.88 1.26 8.03 1.9c1.15 0.63 2.44 1.26 2.29 1.99 -0.14 0.72-0.57 1.81-0.57 1.81s2.15-1.53 3.73-1.81 6.45-0.9 8.6-1.35 4.73-0.99 4.73-0.99l0.72 0.63c0 0 1.43 0.09 2.01-0.72 0.57-0.81 2.87-2.17 3.73-3.34 0.86-1.17 1.86-3.34 1.29-4.42 -0.57-1.08 0.57-2.44-2.29-3.79 -2.87-1.35-6.45-3.88-7.74-3.7 -1.29 0.18-6.6 0.18-7.74 0 -1.15-0.18-4.3-0.36-5.45 0.36 -1.15 0.72-2.29 2.17-4.16 2.53 -1.86 0.36-5.88-0.27-7.74-0.27C37.02 14.76 32.57 16.48 32.57 16.48z"/>
    <path fill="#4FA146" stroke="#669940" stroke-width="0.46" stroke-miterlimit="10" d="M49.39 30.8c-1.72 1.11-5.35 3.35-6.31 3.71 -0.96 0.36-2.48 1.32-2.48 1.32s3.25-0.72 5.35 0c2.1 0.73 3.25 1.93 5.35 2.17 2.1 0.24 4.97-0.48 7.07-0.36 2.1 0.12 6.69 0.6 7.26 0.48 0.57-0.12 5.73-3.25 5.73-3.25s1.26-6.43 1.26-7.48c0-2.17-5.37 0.08-6.38 0.11 -1 0.03-16.49 2.35-16.49 2.35L49.39 30.8z"/>
  </g>
  <g id="Layer_3">
    <path stroke="#000000" stroke-width="0.81" stroke-miterlimit="10" d="M96.54 35.19c0-0.7-0.31-3.04-0.31-3.57C96.23 14.37 74.86 0.4 48.5 0.4 22.14 0.4 0.77 14.37 0.77 31.61c0 0.53-0.31 2.87-0.31 3.57 0 0 1.92 45.93 2.44 46.78 3.78 9.08 20.96 18.64 46.49 18.64 26.28 0 42.77-8.54 45.25-18.01C94.71 82.36 96.54 35.19 96.54 35.19zM49.08 48.11C23.79 47.62 7.81 36.16 5.22 31.03c-1.59-3.14-0.8-9.07 2.17-12.31 6.7-7.3 18.1-16.85 41.26-17.08 23.91-0.23 32.19 7.42 40.99 17.12 3.49 3.84 5.06 10.38 3.76 12.73C87.98 41.28 73.1 48.58 49.08 48.11z"/>
    <path stroke="#000000" stroke-width="0.81" stroke-miterlimit="10" d="M14.53 10.61"/>
  </g>
</svg>
